<?xml version="1.0" encoding="UTF-8"?>
<!DOCTYPE svg PUBLIC "-//W3C//DTD SVG 1.1//EN" "http://www.w3.org/Graphics/SVG/1.1/DTD/svg11.dtd">
<svg version="1.1" id="Layer_1" xmlns="http://www.w3.org/2000/svg" xmlns:xlink="http://www.w3.org/1999/xlink" x="0px" y="0px" width="24px" height="24px" viewBox="0 0 24 24" enable-background="new 0 0 24 24" xml:space="preserve">
  <g id="main">
    <g id="icon">
      <path d="M7.994,2.076L7.29,2.295L6.653,2.64L6.098,3.098L5.64,3.653L5.295,4.29L5.076,4.994L5,5.75L5,15.25L5.076,16.01L5.295,16.71L5.64,17.35L6.098,17.9L6.653,18.36L7.29,18.71L7.994,18.92L8.75,19L10,19L10,17.5L8.75,17.5L8.245,17.44L7.78,17.28L10,15.06L10,14.67L10.06,14.14L10.21,13.63L10.46,13.18L10.79,12.78L11.19,12.46L11.65,12.21L12.16,12.05L12.7,12L13.48,12L13.5,12L13.52,12L15.65,12L16.05,12.04L16.13,12.06L15.3,11.24L14.9,10.92L14.46,10.68L13.99,10.54L13.5,10.5L13.01,10.54L12.54,10.68L12.1,10.92L11.7,11.24L6.719,16.22L6.557,15.76L6.5,15.25L6.5,5.75L6.546,5.296L6.677,4.874L6.884,4.492L7.159,4.159L7.492,3.884L7.874,3.677L8.296,3.546L8.75,3.5L18.25,3.5L18.7,3.546L19.13,3.677L19.51,3.884L19.84,4.159L20.12,4.492L20.32,4.874L20.45,5.296L20.5,5.75L20.5,14.02L21.3,14.02L21.84,14.07L22,14.12L22,5.75L21.92,4.994L21.71,4.29L21.36,3.653L20.9,3.098L20.35,2.64L19.71,2.295L19.01,2.076L18.25,2L8.75,2zM16.94,5.78L16.66,5.868L16.41,6.007L16.18,6.19L16,6.413L15.86,6.668L15.77,6.95L15.74,7.253L15.77,7.556L15.86,7.838L16,8.094L16.18,8.316L16.41,8.499L16.66,8.638L16.94,8.726L17.25,8.756L17.55,8.726L17.83,8.638L18.09,8.499L18.31,8.316L18.49,8.094L18.63,7.838L18.72,7.556L18.75,7.253L18.72,6.95L18.63,6.668L18.49,6.413L18.31,6.19L18.09,6.007L17.83,5.868L17.55,5.78L17.25,5.75zz" fill="#C0C0C0"/>
      <path d="M3.489,5.55L3.071,6.211L2.761,6.937L2.567,7.719L2.5,8.548L2.5,15.65L2.53,16.25L2.619,16.83L2.763,17.39L2.96,17.93L3.206,18.44L3.499,18.92L3.836,19.37L4.213,19.79L4.629,20.16L5.079,20.5L5.562,20.79L6.073,21.04L6.61,21.24L7.171,21.38L7.752,21.47L8.35,21.5L10.02,21.5L10,21.33L10,20L8.35,20L7.473,19.91L6.657,19.66L5.918,19.26L5.274,18.73L4.743,18.08L4.342,17.34L4.088,16.53L4,15.65L4,14L4,8.548L4,5.723L3.943,5.55L3.806,5.453L3.638,5.447zz" fill="#C0C0C0"/>
    </g>
    <g id="overlay">
      <path d="M12.7023,23c-0.9387,0,-1.7023,-0.751,-1.7023,-1.6742v-6.6516c0,-0.9232,0.7636,-1.6742,1.7023,-1.6742h2.9459c0.2699,0,0.5319,0.1099,0.7186,0.3016l1.195,1.443c0.1696,0.174,0.4074,0.2738,0.6525,0.2738h3.0833c0.9387,0,1.7023,0.751,1.7023,1.6742v4.6332c0,0.9232,-0.7636,1.6742,-1.7023,1.6742H12.7023z" fill="#C0C0C0"/>
    </g>
  </g>
</svg>
