<?xml version="1.0" encoding="UTF-8"?>
<!DOCTYPE svg PUBLIC "-//W3C//DTD SVG 1.1//EN" "http://www.w3.org/Graphics/SVG/1.1/DTD/svg11.dtd">
<svg version="1.1" id="Layer_1" xmlns="http://www.w3.org/2000/svg" xmlns:xlink="http://www.w3.org/1999/xlink" x="0px" y="0px" width="16px" height="16px" viewBox="0 0 16 16" enable-background="new 0 0 16 16" xml:space="preserve">
  <g id="main">
    <g id="icon">
      <path d="M3.597,1.041C2.639,1.231,1.936,2.169,2,3.14C2.008,6.466,1.984,9.794,2.012,13.12C2.043,14.19,3.052,15.06,4.11,15C5.403,14.99,6.723,15.01,8,14.99C7.98,14.67,8.04,14.27,7.97,14C6.611,13.99,5.247,14.03,3.892,13.98C3.26,13.94,2.919,13.27,3,12.69C3.008,9.441,2.984,6.188,3.012,2.941C3.036,2.351,3.614,1.943,4.18,2C5.45,2.007,6.747,1.987,8,2.01C8.024,2.953,7.949,3.903,8.042,4.841C8.205,5.618,9.016,6.095,9.78,6C10.52,6.007,11.28,5.987,12,6.01C12.02,6.33,11.96,6.73,12.03,7C12.34,6.98,12.74,7.04,13,6.97C12.96,6.262,13.1,5.526,12.89,4.84C12.55,4.198,11.92,3.778,11.45,3.243C10.75,2.581,10.12,1.845,9.383,1.233C8.732,0.8437,7.943,1.054,7.226,1C6.032,1.021,4.833,0.956,3.642,1.036C3.627,1.038,3.612,1.039,3.597,1.041zM11.79,5C10.97,4.978,10.14,5.045,9.324,4.964C8.823,4.734,9.052,4.095,9,3.66C9.014,3.2,8.972,2.603,9.021,2.228C9.945,3.152,10.87,4.076,11.79,5z" id="c1" fill="#212121"/>
    </g>
    <g id="overlay">
      <path d="M12.3929,15.8168l3.4903,-3.6151c0.0071,-0.0074,0.0139,-0.0152,0.0202,-0.0233c0.1082,-0.1392,0.127,-0.3239,0.049,-0.482c-0.078,-0.1581,-0.2363,-0.2562,-0.4132,-0.2562l-1.5249,-0.0116V8.8603c0,-0.0001,0,-0.0001,0,-0.0002c0,-0.2298,-0.0755,-0.4458,-0.2389,-0.6083c-0.1633,-0.1625,-0.3805,-0.2519,-0.6115,-0.2519l-2.328,0.0004c-0.4765,0.0001,-0.8502,0.3826,-0.8503,0.8568v2.5714l-1.5249,0.0116c-0.1769,0,-0.3353,0.0982,-0.4132,0.2562c-0.0319,0.0647,-0.0476,0.1338,-0.0476,0.2024c0,0.0991,0.0327,0.1972,0.0966,0.2795c0.0063,0.0081,0.013,0.0159,0.0202,0.0233l3.4903,3.6151c0.0974,0.1167,0.2396,0.1832,0.3929,0.1832C12.1533,16,12.2955,15.9335,12.3929,15.8168z" id="c1" fill="#212121"/>
    </g>
  </g>
</svg>
