<?xml version="1.0" encoding="UTF-8"?>
<!DOCTYPE svg PUBLIC "-//W3C//DTD SVG 1.1//EN" "http://www.w3.org/Graphics/SVG/1.1/DTD/svg11.dtd">
<svg version="1.1" id="Layer_1" xmlns="http://www.w3.org/2000/svg" xmlns:xlink="http://www.w3.org/1999/xlink" x="0px" y="0px" width="16px" height="16px" viewBox="0 0 16 16" enable-background="new 0 0 16 16" xml:space="preserve">
  <g id="icon">
    <path d="M12,2H3c-1.1028,0,-2,0.8972,-2,2v8c0,1.1028,0.8972,2,2,2h9c1.1028,0,2,-0.8972,2,-2V4C14,2.8972,13.1028,2,12,2zM2,12V5h5v8H3C2.4486,13,2,12.5514,2,12zM13,12c0,0.5514,-0.4486,1,-1,1H8V5h5V12zM2,4c0,-0.5514,0.4486,-1,1,-1h9c0.5514,0,1,0.4486,1,1H2z" id="c1" fill="#212121"/>
  </g>
</svg>
