<?xml version="1.0" encoding="UTF-8"?>
<!DOCTYPE svg PUBLIC "-//W3C//DTD SVG 1.1//EN" "http://www.w3.org/Graphics/SVG/1.1/DTD/svg11.dtd">
<svg version="1.1" id="Layer_1" xmlns="http://www.w3.org/2000/svg" xmlns:xlink="http://www.w3.org/1999/xlink" x="0px" y="0px" width="24px" height="24px" viewBox="0 0 24 24" enable-background="new 0 0 24 24" xml:space="preserve">
  <g id="main">
    <g id="icon">
      <path d="M4.406,4.061C3.303,4.3,2.363,5.176,2.1,6.28C1.912,7.215,2.036,8.183,2,9.133C2.009,11.8,1.981,14.46,2.014,17.13C2.051,18.43,3.046,19.62,4.318,19.91C5.307,20.08,6.322,19.97,7.323,20C11.25,19.99,15.17,20.01,19.1,19.99C19.58,19.96,20.13,19.85,20.5,19.55C20.49,18.8,20.51,18.02,20.49,17.29C20.35,17.72,20.06,18.18,19.6,18.37C18.94,18.61,18.2,18.45,17.51,18.5C13.31,18.49,9.103,18.51,4.903,18.49C4.044,18.46,3.4,17.6,3.5,16.77C3.508,13.48,3.484,10.18,3.512,6.893C3.553,5.926,4.569,5.349,5.462,5.5C10,5.507,14.55,5.487,19.09,5.51C20.06,5.539,20.65,6.554,20.5,7.453C20.5,9.253,20.5,11.05,20.5,12.85C20.92,12.42,21.38,11.93,22,11.85C21.99,10.17,22.03,8.483,21.98,6.804C21.92,5.373,20.68,4.109,19.25,4.026C17.83,3.966,16.4,4.017,14.98,4C11.62,4.008,8.253,3.984,4.893,4.012C4.731,4.028,4.568,4.045,4.406,4.061z" id="c1" fill="#212121"/>
    </g>
    <g id="overlay">
      <path d="M21.5,22.419v-7.0373l-0.7923,0.7846c-0.0962,0.0952,-0.2302,0.1443,-0.3649,0.1307c-0.8095,-0.082,-0.998,-0.8922,-0.5705,-1.3154l1.95,-1.931c0.3368,-0.3332,0.9355,-0.2987,1.2214,0.2149c0.0378,0.0679,0.0563,0.1453,0.0563,0.223l0,8.7616c0,0.6015,-0.7082,1.0377,-1.3361,0.5202C21.5594,22.6841,21.5,22.5543,21.5,22.419z" id="c2" fill="#212121"/>
    </g>
  </g>
</svg>
